<mxfile host="app.diagrams.net" modified="2024-04-20T00:32:21.957Z" agent="Mozilla/5.0 (Macintosh; Intel Mac OS X 10_15_7) AppleWebKit/537.36 (KHTML, like Gecko) Chrome/123.0.0.0 Safari/537.36" etag="nlTzGHZ3w5EdvzOEMtO6" version="24.2.7" type="github">
  <diagram name="第 1 页" id="CIrWiUNYn-8MsHlbXYin">
    <mxGraphModel dx="1026" dy="651" grid="1" gridSize="10" guides="1" tooltips="1" connect="1" arrows="1" fold="1" page="1" pageScale="1" pageWidth="827" pageHeight="1169" math="0" shadow="0">
      <root>
        <mxCell id="0" />
        <mxCell id="1" parent="0" />
        <mxCell id="Ou_ylWvbZIV7eGrl0jaP-1" value="1" style="ellipse;whiteSpace=wrap;html=1;" parent="1" vertex="1">
          <mxGeometry x="20" y="60" width="50" height="70" as="geometry" />
        </mxCell>
        <mxCell id="Ou_ylWvbZIV7eGrl0jaP-6" value="2" style="ellipse;whiteSpace=wrap;html=1;" parent="1" vertex="1">
          <mxGeometry x="120" y="60" width="50" height="70" as="geometry" />
        </mxCell>
        <mxCell id="Ou_ylWvbZIV7eGrl0jaP-7" value="3" style="ellipse;whiteSpace=wrap;html=1;" parent="1" vertex="1">
          <mxGeometry x="210" y="60" width="50" height="70" as="geometry" />
        </mxCell>
        <mxCell id="Ou_ylWvbZIV7eGrl0jaP-9" value="4" style="ellipse;whiteSpace=wrap;html=1;" parent="1" vertex="1">
          <mxGeometry x="300" y="60" width="50" height="70" as="geometry" />
        </mxCell>
        <mxCell id="Ou_ylWvbZIV7eGrl0jaP-10" value="5" style="ellipse;whiteSpace=wrap;html=1;" parent="1" vertex="1">
          <mxGeometry x="400" y="60" width="50" height="70" as="geometry" />
        </mxCell>
        <mxCell id="Ou_ylWvbZIV7eGrl0jaP-12" value="left" style="text;strokeColor=none;fillColor=none;html=1;fontSize=24;fontStyle=1;verticalAlign=middle;align=center;" parent="1" vertex="1">
          <mxGeometry x="100" y="10" width="100" height="40" as="geometry" />
        </mxCell>
        <mxCell id="Ou_ylWvbZIV7eGrl0jaP-13" value="right" style="text;strokeColor=none;fillColor=none;html=1;fontSize=24;fontStyle=1;verticalAlign=middle;align=center;" parent="1" vertex="1">
          <mxGeometry x="275" y="10" width="100" height="40" as="geometry" />
        </mxCell>
        <mxCell id="Ou_ylWvbZIV7eGrl0jaP-16" value="&lt;div&gt;&lt;br&gt;&lt;/div&gt;" style="text;html=1;align=center;verticalAlign=middle;whiteSpace=wrap;rounded=0;" parent="1" vertex="1">
          <mxGeometry x="550" y="40" width="60" height="30" as="geometry" />
        </mxCell>
      </root>
    </mxGraphModel>
  </diagram>
</mxfile>
